<?xml version="1.0" ?><svg height="512" id="Layer_1" version="1.1" viewBox="0 0 512 512" width="512" xml:space="preserve" xmlns="http://www.w3.org/2000/svg" xmlns:cc="http://creativecommons.org/ns#" xmlns:dc="http://purl.org/dc/elements/1.1/" xmlns:inkscape="http://www.inkscape.org/namespaces/inkscape" xmlns:rdf="http://www.w3.org/1999/02/22-rdf-syntax-ns#" xmlns:sodipodi="http://sodipodi.sourceforge.net/DTD/sodipodi-0.dtd" xmlns:svg="http://www.w3.org/2000/svg"><defs id="defs12"/><g id="g6232"><rect height="512" id="rect2987" rx="64" ry="64" style="fill:#282828;fill-opacity:1;fill-rule:nonzero;stroke:none" width="512" x="0" y="5.6843419e-014"/><path d="m 257.64,255.99999 c 0,-38.9911 25.95556,-62.02666 58.56888,-62.02666 22.40444,0 41.70222,8.19555 53.01778,28.79555 l -26.60889,13.95555 C 336.4,223.43112 325.74666,220.5511 320.42222,220.5511 c -19.73334,0 -26.84444,15.2889 -26.84444,35.44889 0,20.16445 8.43554,35.44889 26.84444,35.44889 10.65332,0 19.08444,-3.99111 24.62222,-17.28444 l 24.85778,12.63111 c -10.64889,18.82666 -29.95555,31.23111 -52.57777,31.23111 -35.28001,0.005 -59.68445,-22.36445 -59.68445,-62.02667 z m -55.85778,62.03111 c 22.62223,0 41.93333,-12.40444 52.57779,-31.23111 l -24.84445,-12.63111 c -5.55112,13.28889 -13.98223,17.28444 -24.62667,17.28444 -18.41779,0 -26.84445,-15.28444 -26.84445,-35.44887 0,-20.15556 7.10222,-35.4489 26.84445,-35.4489 5.32001,0 15.9689,2.88 22.18666,16.17334 l 26.6089,-13.95556 c -11.30668,-20.60445 -30.61334,-28.79555 -53.01778,-28.79555 -32.61335,0 -58.56889,23.03556 -58.56889,62.02667 0.004,39.65776 24.39555,62.02665 59.68444,62.02665 z m -87.07556,78.8 c -38.417775,-38.36445 -58.706655,-87.68 -58.706655,-140.83111 0,-52.59999 20.84,-103.00888 59.248885,-141.91554 37.32,-37.804446 85.60888,-58.084446 140.47555,-58.084446 54.86666,0 104.25334,20.28 142.67111,58.631116 C 436.25778,152.44445 456,201.75999 456,255.99999 c 0,54.8 -19.74222,103.56 -57.06224,140.27555 C 359.4311,435.17776 308.40445,456 255.72444,456 203.05333,456 153.11111,435.17776 114.70665,396.8311 z M 92.204455,255.99999 c 0,42.74667 17.559985,83.83555 48.831095,115.07555 31.27555,31.23111 71.89334,48.21333 115.24445,48.21333 42.79555,0 84.49777,-16.98222 116.87999,-48.76444 30.71111,-30.14222 46.63555,-69.59111 46.63555,-114.52444 0,-44.38222 -16.46222,-84.92443 -47.19109,-115.61778 C 341.32,109.15556 301.27556,92.168893 256.28,92.168893 c -44.99555,0 -84.51112,16.439977 -115.24,47.666657 -31.27111,31.78224 -48.835545,72.87999 -48.835545,116.16444 z" id="Creative_Commons" style="fill:#ffffff;fill-opacity:1"/></g><path d="m 18.69574,493.28751 c 11.56798,11.5679 27.57606,18.7125 45.30404,18.7125 l 384.01255,-0.029 c 35.456,0 63.9877,-28.5316 63.9877,-63.98759 l 0,-383.983685 c 0,-17.72798 -7.1446,-33.73603 -18.7126,-45.30403 L 18.69574,493.28751 z" id="rect2984-1" style="fill:#000000;fill-opacity:0.30196078;fill-rule:nonzero;stroke:none"/></svg>